<?xml version="1.0" encoding="UTF-8"?>
<svg width="763px" height="122px" viewBox="0 0 763 122" version="1.1" xmlns="http://www.w3.org/2000/svg" xmlns:xlink="http://www.w3.org/1999/xlink">
    <title>logo3</title>
    <g id="Page-1" stroke="none" stroke-width="1" fill="none" fill-rule="evenodd">
        <g id="logo3" transform="translate(0.150000, 0.140000)" fill="#0F0F0F" fill-rule="nonzero">
            <path d="M64.69,1.51 L79.32,1.51 L79.32,36.59 C83.71,31.14 90.49,27.94 98.34,27.94 C112.57,27.94 123.08,38.32 123.08,53.08 L123.08,93.12 L108.45,93.12 L108.45,56.27 C108.45,47.76 102.46,41.64 93.95,41.64 C85.44,41.64 79.32,47.76 79.32,56.27 L79.32,93.12 L64.69,93.12 L64.69,1.51 Z" id="Path"></path>
            <path d="M132.79,8.78 C132.79,3.86 136.38,0 141.43,0 C146.48,0 150.08,3.86 150.08,8.78 C150.08,13.7 146.49,17.56 141.43,17.56 C136.37,17.56 132.79,13.7 132.79,8.78 Z M134.12,29.27 L148.75,29.27 L148.75,93.12 L134.12,93.12 L134.12,29.27 L134.12,29.27 Z" id="Shape"></path>
            <path d="M161.12,29.27 L175.75,29.27 L175.75,36.58 C180.14,31.13 186.92,27.93 194.77,27.93 C209.13,27.93 219.51,40.57 219.51,53.07 L219.51,93.11 L204.88,93.11 L204.88,56.26 C204.88,47.75 198.89,41.63 190.38,41.63 C181.87,41.63 175.75,47.75 175.75,56.26 L175.75,93.11 L161.12,93.11 L161.12,29.26 L161.12,29.27 Z" id="Path"></path>
            <polygon id="Path" points="230.42 1.51 245.05 1.51 245.05 59.33 270.85 29.27 288.28 29.27 261.41 59.86 289.61 93.11 270.99 93.11 245.05 61.85 245.05 93.11 230.42 93.11 230.42 1.5"></polygon>
            <path d="M293.81,8.78 C293.81,3.86 297.4,0 302.46,0 C307.52,0 311.11,3.86 311.11,8.78 C311.11,13.7 307.52,17.56 302.46,17.56 C297.4,17.56 293.81,13.7 293.81,8.78 Z M295.14,29.27 L309.77,29.27 L309.77,93.12 L295.14,93.12 L295.14,29.27 L295.14,29.27 Z" id="Shape"></path>
            <path d="M322.14,29.27 L336.77,29.27 L336.77,36.58 C341.16,31.13 347.94,27.93 355.79,27.93 C370.15,27.93 380.53,40.57 380.53,53.07 L380.53,93.11 L365.9,93.11 L365.9,56.26 C365.9,47.75 359.91,41.63 351.4,41.63 C342.89,41.63 336.77,47.75 336.77,56.26 L336.77,93.11 L322.14,93.11 L322.14,29.26 L322.14,29.27 Z" id="Path"></path>
            <path d="M387.31,59.73 C387.31,41.64 400.21,27.94 417.37,27.94 C425.62,27.94 432.54,31 437.06,36.05 L437.06,29.27 L451.69,29.27 L451.69,90.46 C451.69,108.82 437.99,121.05 418.04,121.05 C404.6,121.05 394.36,116 388.11,107.08 L397.69,97.5 C402.75,103.89 409.13,107.08 418.31,107.08 C429.88,107.08 437.07,100.83 437.07,90.45 L437.07,83.53 C432.55,88.72 425.63,91.78 417.38,91.78 C400.22,91.78 387.32,77.95 387.32,59.72 L387.31,59.73 Z M437.99,59.86 C437.99,48.95 430.94,41.77 420.3,41.77 C409.66,41.77 402.34,49.08 402.34,59.86 C402.34,70.64 409.66,77.95 420.3,77.95 C430.94,77.95 437.99,70.77 437.99,59.86 Z" id="Shape"></path>
            <path d="M467.39,84.6 C467.39,79.01 471.38,74.76 477.1,74.76 C482.82,74.76 486.81,79.02 486.81,84.6 C486.81,90.18 482.82,94.44 477.1,94.44 C471.38,94.44 467.39,90.18 467.39,84.6 Z" id="Path"></path>
            <path d="M542.97,61.06 C542.97,42.57 557.6,27.94 576.36,27.94 C595.12,27.94 609.88,42.44 609.88,61.06 C609.88,79.68 595.25,94.45 576.36,94.45 C557.47,94.45 542.97,79.68 542.97,61.06 Z M594.85,61.06 C594.85,49.89 587.13,42.04 576.36,42.04 C565.59,42.04 558,50.02 558,61.06 C558,72.1 565.58,80.35 576.36,80.35 C587.14,80.35 594.85,72.37 594.85,61.06 Z" id="Shape"></path>
            <path d="M615.87,61.06 C615.87,42.57 630.5,27.94 649.26,27.94 C668.02,27.94 682.78,42.44 682.78,61.06 C682.78,79.68 668.15,94.45 649.26,94.45 C630.37,94.45 615.87,79.68 615.87,61.06 Z M667.75,61.06 C667.75,49.89 660.03,42.04 649.26,42.04 C638.49,42.04 630.9,50.02 630.9,61.06 C630.9,72.1 638.48,80.35 649.26,80.35 C660.04,80.35 667.75,72.37 667.75,61.06 Z" id="Shape"></path>
            <polygon id="Path" points="690.89 1.51 705.52 1.51 705.52 93.12 690.89 93.12"></polygon>
            <path d="M712.17,82.74 L721.48,73.43 C725.87,78.62 731.59,81.14 738.9,81.14 C745.42,81.14 748.88,79.14 748.88,75.42 C748.88,63.85 715.76,70.76 715.76,47.62 C715.76,35.38 724.67,27.93 739.3,27.93 C749.54,27.93 757.52,31.66 762.84,38.84 L753.53,48.15 C749.8,43.49 745.15,41.23 738.9,41.23 C733.05,41.23 729.72,43.09 729.72,46.42 C729.72,56.93 762.84,50.68 762.84,74.22 C762.84,86.72 753.53,94.44 738.63,94.44 C727.85,94.44 718.28,90.18 712.16,82.74 L712.17,82.74 Z" id="Path"></path>
            <polygon id="Path" points="54.98 29.36 5.68434189e-14 29.36 5.68434189e-14 42.54 20.22 42.54 20.22 93.11 34.76 93.11 34.76 42.54 54.98 42.54"></polygon>
            <polygon id="Path" points="539.8 29.36 484.81 29.36 484.81 42.54 505.03 42.54 505.03 93.11 519.57 93.11 519.57 42.54 539.8 42.54"></polygon>
        </g>
    </g>
</svg>